<svg xmlns="http://www.w3.org/2000/svg" fill="none" viewBox="300 340 660 720">
  <path fill="#6a7a52"
        d="m696 464 2 6q3 37 29 61 22 16 48 15h9l5-1q18-1 31 11l21 23 34 49 1 2q13 18 11 38-4 18-19 28-13 6-25 7h-4l-23 3-3 1-73 10-27 3a1247 1247 0 0 0-101 14l-72 11h-7l-40 5v5q2 2 6 1l3 1h7l10 1h8l48 3h2l21 1 49 6q5 10 6 22 0 26 17 45 18 13 37 10 17-3 28-16 11-19 8-39v-17l4-1a429 429 0 0 1 64 3l47 3c11 0 11 0 15 3l3 6q-3 8-9 12l-10 6-11 8-67 47-3 2a72 72 0 0 1-57 12l-41-10-54-15-63-17-18-4-8-3-29-8-40-10-14-4-3-1-7-1q-24-5-36-27c-25-41-25-41-20-64q8-19 21-34l34-43 1-2 4-5 2-3 6-2 12 5q16 5 34 4h4q12 0 23-3l2-1a89 89 0 0 0 64-86v-3q1-9-2-16v-8q7-7 16-11l3-1 46-24 3-2c25-12 25-12 37-11"/>
  <path fill="#697951" fill-rule="evenodd"
        d="m549 480 5 5 3 2q21 21 23 50 1 20-8 37l-2 3a79 79 0 0 1-47 37q-34 10-65-7l-14-10-3-2q-12-13-19-31l-1-2c-5-14-4-35 2-48q5-12 14-22l2-2c28-30 77-33 110-10m248-63q23 16 30 43l1 2q4 25-9 47-13 18-35 24-26 4-48-12a71 71 0 0 1-25-44c-1-18-1-18 2-26l1-3q9-23 32-35 26-11 51 4 M790 482q6 6 5 15 0 7-7 13-8 4-18 2-7-3-10-10-3-6 0-13 4-8 12-12 10-1 18 5m-248 57 6 4 3 2q4 6 2 14-1 7-6 11-7 5-15 4-9-3-13-10-3-8 0-16 9-12 23-9"/>
  <path fill="#697a52"
        d="M659 757h65c7 15 10 38 5 54a32 32 0 0 1-15 17q-11 6-26 2l-5-3-2-1q-10-9-13-22l-1-13q-2-18-8-34"/>
  <path fill="#5c6a47" fill-rule="evenodd"
        d="M693 974h3l11 2q4 8 3 15v4q1 7-3 12-8 4-16 2h-12v-5l23-1 2-6-2 1h-13q-5 1-10-2-3-4-3-9v-4c2-9 9-9 17-9m-5 6h13l3 1v9l-1 3h-17l-3-1v-9q0-4 5-3"/>
  <path fill="#63724d" fill-rule="evenodd"
        d="M546 974h3l3 1 4-1q6 0 11 3 4 4 3 10v2q0 5-3 9-7 4-15 3h-3c-7 0-7 0-10-3q-3-2-3-6v-2l1-2-1-3v-4q3-7 10-7m6 6h8l4 2v9l-1 4h-18l-3-1v-10c0-6 6-4 10-4"/>
  <path fill="#606e4a" fill-rule="evenodd"
        d="M768 974h2q6 0 11 3c2 3 2 3 2 13h-26l1 4 24 1v5h-16c-8 1-8 1-12-2q-3-5-3-11v-2q0-5 3-8 6-4 14-3m-5 6h13l1 5h-20q0-6 6-5"/>
  <path fill="#6b7d53" d="M489 965h7v5h-11l-3 1-2 4h16v5h-16v20h-5v-17c-1-11-1-11 1-15q6-5 13-3"/>
  <path fill="#5a6746" d="M707 979h2v12l1 4c0 8 0 8-3 12q-8 4-16 2h-12v-5l23-1 2-6h-11v-1l-8-1v-1h11l8-3 1-4q0-5 2-8"/>
  <path fill="#5a6846" d="M627 975h10v5l-18 1-1 19h-6l2-23q6-4 13-2"/>
  <path fill="#586645" fill-rule="evenodd"
        d="M768 975h10v3h2l-2 7h-21l3-6 6-1-10-1-1 3h-2v15h-1v-10q-1-5 2-8 7-3 14-2m-5 5h13l1 5h-20q0-6 6-5"/>
  <path fill="#5c6b46" d="M489 965h7v5h-7l-4 1q-3 0-5 2l-3-1-1 27 4 1h-5v-17c-1-11-1-11 1-15q6-5 13-3"/>
  <path fill="#687750" d="M707 979h2v25h-2q-2-3-2-8l-2 1h-10v-1l-8-1v-1h11l8-3 1-4q0-5 2-8"/>
  <path fill="#525e40" fill-rule="evenodd"
        d="M677 980h1l1 11 2-1 1-4v-4h1l1 10 18 1v1l-7 1v1l7 1v1h-12q-6 1-11-2-3-5-2-10z"/>
  <path fill="#576344" d="M612 980h1l1 7 1-2 2-3h1v18h-6z"/>
  <path fill="#687950" d="m778 976 4 2v11h-25v-3l20-1 3-7h-2z"/>
  <path fill="#586645" d="M568 979h1v10q1 5-2 9-7 4-15 2h-11v-1l17-1v-1l-14-1v-1h12l2-1h3l6-2 1-7z"/>
  <path fill="#4f5b3e" d="M782 980h1v10h-26l-1 3-2-1v-10l3 1v2h20v1l-10 1v1l15 1z"/>
  <path fill="#6b7b52" d="M680 977h8l2 1h5v1h-5l-3 1-4 2-1 5v4l-4 1v-10q0-3 2-5"/>
  <path fill="#576343" d="M481 975h15v5h-15z"/>
  <path fill="#67754e" d="M680 1005h17v3h-18z"/>
  <path fill="#66764f" d="M756 977h7l13 1v1h-10q-5 0-9 4l-2 2-1-5z"/>
  <path fill="#697a51" d="m615 977 4 1-5 10h-1v-7z"/>
</svg>
